<svg width="16" height="16" viewBox="0 0 16 16" fill="none" xmlns="http://www.w3.org/2000/svg">
<path d="M8.95312 6.57812C8.59219 6.57812 8.3125 6.85781 8.3125 7.20312C8.3125 7.54844 8.59219 7.82812 8.95312 7.82812C9.28281 7.82812 9.5625 7.54844 9.5625 7.20312C9.5625 6.85781 9.28281 6.57812 8.95312 6.57812ZM4.57812 6.57812C4.21719 6.57812 3.9375 6.85781 3.9375 7.20312C3.9375 7.54844 4.21719 7.82812 4.57812 7.82812C4.90781 7.82812 5.1875 7.54844 5.1875 7.20312C5.1875 6.85781 4.90781 6.57812 4.57812 6.57812Z" fill="#7840D3"/>
<path d="M13.9685 5.39035C13.217 4.3591 12.167 3.67004 11.0154 3.3591V3.36066C10.7482 3.06379 10.4467 2.79035 10.1092 2.5466C7.55135 0.687222 3.96073 1.25441 2.09354 3.81222C0.588854 5.89035 0.652917 8.68566 2.18729 10.6716L2.19979 12.7435C2.19979 12.7935 2.2076 12.8435 2.22323 12.8904C2.30604 13.1544 2.58729 13.2997 2.84979 13.2169L4.82791 12.5935C5.35135 12.7794 5.89197 12.8857 6.42947 12.9154L6.42166 12.9216C7.81385 13.9357 9.63884 14.2404 11.3123 13.6872L13.2982 14.3341C13.3482 14.3497 13.3998 14.3591 13.4529 14.3591C13.7295 14.3591 13.9529 14.1357 13.9529 13.8591V11.7654C15.3295 9.8966 15.3654 7.31379 13.9685 5.39035ZM5.04666 11.4841L4.85916 11.406L3.31229 11.8904L3.29666 10.2654L3.17166 10.1247C1.84979 8.51223 1.76229 6.18879 2.99979 4.4841C4.50604 2.41847 7.39353 1.96222 9.45291 3.45285C11.5185 4.95441 11.9763 7.83723 10.4842 9.89035C9.23259 11.6075 6.99197 12.2419 5.04666 11.4841ZM12.9373 11.2185L12.8123 11.3747L12.8279 12.9997L11.2967 12.4841L11.1092 12.5622C10.2342 12.8872 9.30134 12.9138 8.43728 12.6716L8.43416 12.67C9.58884 12.3154 10.6357 11.5966 11.3904 10.5622C12.5842 8.91691 12.7779 6.84973 12.0842 5.08722L12.0935 5.09347C12.4529 5.35129 12.7826 5.67316 13.0623 6.06222C14.1967 7.61848 14.1326 9.73723 12.9373 11.2185Z" fill="#7840D3"/>
<path d="M6.76562 6.57812C6.40469 6.57812 6.125 6.85781 6.125 7.20312C6.125 7.54844 6.40469 7.82812 6.76562 7.82812C7.09531 7.82812 7.375 7.54844 7.375 7.20312C7.375 6.85781 7.09531 6.57812 6.76562 6.57812Z" fill="#7840D3"/>
</svg>
