<svg width="18" height="15" viewBox="0 0 18 15" fill="none" xmlns="http://www.w3.org/2000/svg">
<path d="M0 0V0.934319C0.00169236 1.04434 0.0502635 1.14928 0.135135 1.22629L6.69369 7.36611C6.77857 7.44312 6.82714 7.54806 6.82883 7.65808V13.4058C6.82866 13.484 6.85222 13.5606 6.89682 13.627C6.94142 13.6934 7.00527 13.7468 7.08108 13.7812L10.6396 14.9575C10.7084 14.9886 10.7846 15.0031 10.861 14.9994C10.9375 14.9958 11.0117 14.9742 11.0766 14.9366C11.1415 14.899 11.195 14.8468 11.232 14.7847C11.2691 14.7227 11.2884 14.6529 11.2883 14.5821V7.583C11.3008 7.47025 11.3587 7.366 11.4504 7.29103L17.8649 1.24298C17.9497 1.16597 17.9983 1.06102 18 0.951004V0H0Z" fill="black"/>
</svg>
