<svg width="20" height="20" viewBox="0 0 20 20" fill="none" xmlns="http://www.w3.org/2000/svg">
<path d="M18.4809 13.4863L16.8309 11.8363C16.3391 11.3484 15.6752 11.0733 14.9824 11.0704C14.2896 11.0675 13.6234 11.3369 13.1274 11.8206C12.8628 12.0867 12.5136 12.2523 12.1401 12.2889C11.7665 12.3254 11.3919 12.2306 11.0807 12.0208C9.85231 11.2011 8.79706 10.1478 7.97491 8.92108C7.76878 8.60639 7.67742 8.23027 7.71622 7.85609C7.75502 7.48191 7.92161 7.13253 8.18791 6.86683C8.66723 6.37038 8.93318 5.70603 8.92884 5.01597C8.92449 4.3259 8.6502 3.66495 8.16466 3.17458L6.51466 1.52458C6.02067 1.03229 5.3517 0.755859 4.65429 0.755859C3.95688 0.755859 3.2879 1.03229 2.79391 1.52458L2.31916 2.00008C-0.155839 4.47508 0.0294113 9.67858 5.17891 14.8251C8.28391 17.9308 11.4092 19.2313 13.9434 19.2313C14.6894 19.2562 15.4329 19.1323 16.1305 18.8669C16.8282 18.6015 17.466 18.1999 18.0069 17.6856L18.4824 17.2101C18.9756 16.7159 19.2525 16.0461 19.2522 15.3479C19.2519 14.6497 18.9745 13.9801 18.4809 13.4863ZM17.4204 16.1496L16.9449 16.6251C14.9949 18.5751 10.6907 18.2188 6.23791 13.7653C1.78516 9.31183 1.42816 5.00458 3.37816 3.05458L3.84991 2.57983C4.06232 2.36819 4.34994 2.24936 4.64979 2.24936C4.94963 2.24936 5.23726 2.36819 5.44966 2.57983L7.09966 4.22983C7.30821 4.43942 7.42658 4.72222 7.42953 5.01788C7.43247 5.31353 7.31975 5.59863 7.11541 5.81233C6.60862 6.32235 6.29249 6.99105 6.21999 7.70638C6.14748 8.42172 6.32301 9.14024 6.71716 9.74158C7.65132 11.1395 8.8526 12.339 10.2519 13.2711C10.8514 13.6653 11.5681 13.8419 12.2821 13.7713C12.9962 13.7007 13.6644 13.3873 14.1752 12.8833C14.3885 12.6766 14.6744 12.5618 14.9714 12.5636C15.2685 12.5654 15.5529 12.6837 15.7637 12.8931L17.4137 14.5431C17.52 14.6479 17.6046 14.7727 17.6625 14.9103C17.7204 15.0479 17.7506 15.1956 17.7512 15.3449C17.7518 15.4942 17.7229 15.6422 17.6662 15.7803C17.6094 15.9184 17.5259 16.0439 17.4204 16.1496Z" fill="black"/>
</svg>
