<svg width="22" height="22" viewBox="0 0 22 22" fill="none" xmlns="http://www.w3.org/2000/svg">
<g clip-path="url(#clip0_326_2478)">
<path fill-rule="evenodd" clip-rule="evenodd" d="M19.5938 22C20.2319 22 20.844 21.7465 21.2952 21.2952C21.7465 20.844 22 20.2319 22 19.5938L22 2.40625C22 1.078 20.922 1.81311e-06 19.5938 1.69699e-06L2.40625 1.94408e-07C1.76808 1.38617e-07 1.15604 0.253515 0.704777 0.704773C0.253519 1.15603 3.67608e-06 1.76807 3.62029e-06 2.40625L2.11771e-06 19.5937C2.06192e-06 20.2319 0.253517 20.844 0.704775 21.2952C1.15603 21.7465 1.76807 22 2.40625 22L19.5938 22ZM19.9375 19.5938C19.9375 19.6849 19.9013 19.7724 19.8368 19.8368C19.7724 19.9013 19.6849 19.9375 19.5938 19.9375L2.40625 19.9375C2.31508 19.9375 2.22765 19.9013 2.16318 19.8368C2.09872 19.7724 2.0625 19.6849 2.0625 19.5937L2.0625 2.40625C2.0625 2.31508 2.09872 2.22765 2.16318 2.16318C2.22765 2.09872 2.31509 2.0625 2.40625 2.0625L19.5938 2.0625C19.6849 2.0625 19.7724 2.09872 19.8368 2.16318C19.9013 2.22765 19.9375 2.31508 19.9375 2.40625L19.9375 19.5938ZM5.84375 17.875C6.11726 17.875 6.37956 17.7663 6.57296 17.573C6.76635 17.3796 6.875 17.1173 6.875 16.8437L6.875 6.53125C6.875 6.25775 6.76635 5.99544 6.57296 5.80205C6.37956 5.60865 6.11726 5.5 5.84375 5.5C5.57025 5.5 5.30795 5.60865 5.11455 5.80205C4.92115 5.99544 4.8125 6.25775 4.8125 6.53125L4.8125 16.8437C4.8125 17.1173 4.92115 17.3796 5.11455 17.573C5.30795 17.7663 5.57025 17.875 5.84375 17.875ZM17.1875 16.8438C17.1875 17.1173 17.0789 17.3796 16.8855 17.573C16.6921 17.7664 16.4298 17.875 16.1563 17.875C15.8827 17.875 15.6204 17.7664 15.427 17.573C15.2337 17.3796 15.125 17.1173 15.125 16.8437L15.125 9.28125C15.125 9.00775 15.2337 8.74544 15.427 8.55205C15.6204 8.35865 15.8827 8.25 16.1563 8.25C16.4298 8.25 16.6921 8.35865 16.8855 8.55205C17.0789 8.74544 17.1875 9.00775 17.1875 9.28125L17.1875 16.8438ZM11 17.875C11.2735 17.875 11.5358 17.7664 11.7292 17.573C11.9226 17.3796 12.0313 17.1173 12.0313 16.8437L12.0313 12.0313C12.0313 11.7577 11.9226 11.4954 11.7292 11.302C11.5358 11.1086 11.2735 11 11 11C10.7265 11 10.4642 11.1086 10.2708 11.302C10.0774 11.4954 9.96875 11.7577 9.96875 12.0312L9.96875 16.8437C9.96875 17.1173 10.0774 17.3796 10.2708 17.573C10.4642 17.7664 10.7265 17.875 11 17.875Z" fill="black"/>
</g>
<defs>
<clipPath id="clip0_326_2478">
<rect width="22" height="22" fill="white" transform="translate(22 22) rotate(-180)"/>
</clipPath>
</defs>
</svg>
