<svg width="19" height="19" viewBox="0 0 19 19" fill="none" xmlns="http://www.w3.org/2000/svg">
<path d="M12.3437 3.49278C11.2858 2.94895 10.1111 2.67138 8.92169 2.68414C7.73223 2.6969 6.56384 2.9996 5.51783 3.566C4.47181 4.13241 3.57973 4.94541 2.91896 5.93453C2.25819 6.92364 1.84866 8.05901 1.72588 9.24218C1.71552 9.35322 1.68327 9.4611 1.63097 9.55959C1.57867 9.65808 1.50736 9.74524 1.42118 9.816C1.33499 9.88677 1.23564 9.93976 1.12885 9.97189C1.02206 10.004 0.909966 10.0147 0.799036 10.0032C0.688108 9.99178 0.580551 9.95846 0.482578 9.90519C0.384607 9.85192 0.298168 9.77976 0.228254 9.69287C0.15834 9.60599 0.106342 9.50612 0.075264 9.39902C0.0441856 9.29192 0.0346432 9.17972 0.0471878 9.06891C0.233315 7.27551 0.953751 5.57935 2.11515 4.20019C3.27655 2.82104 4.82537 1.82247 6.56094 1.33387C8.2965 0.845265 10.1388 0.889158 11.8491 1.45986C13.5595 2.03055 15.059 3.10175 16.1534 4.53465L17.5215 3.1665C17.5609 3.12706 17.611 3.10019 17.6657 3.08929C17.7203 3.0784 17.7769 3.08397 17.8284 3.1053C17.8798 3.12663 17.9238 3.16276 17.9547 3.20911C17.9856 3.25546 18.0021 3.30994 18.002 3.36565V7.46786C18.002 7.54246 17.9723 7.614 17.9196 7.66675C17.8668 7.7195 17.7953 7.74914 17.7207 7.74914H13.6185C13.5628 7.74924 13.5083 7.73279 13.4619 7.70189C13.4156 7.67099 13.3794 7.62703 13.3581 7.57557C13.3368 7.52411 13.3312 7.46747 13.3421 7.41284C13.353 7.35821 13.3799 7.30805 13.4193 7.26871L14.9472 5.74079C14.2707 4.79485 13.3781 4.02414 12.3437 3.49278ZM16.582 10.1895C16.7115 10.084 16.8693 10.0193 17.0355 10.0035C17.2017 9.9877 17.3689 10.0216 17.5159 10.1008C17.6628 10.1801 17.783 10.3012 17.8611 10.4488C17.9392 10.5963 17.9718 10.7638 17.9547 10.9299C17.768 12.723 17.0473 14.4187 15.8859 15.7975C14.7244 17.1762 13.1757 18.1745 11.4404 18.6631C9.70511 19.1516 7.86309 19.1079 6.15292 18.5375C4.44275 17.9672 2.94321 16.8965 1.84851 15.4641L0.480362 16.8323C0.441021 16.8717 0.390858 16.8986 0.336229 16.9095C0.281599 16.9204 0.224964 16.9148 0.173504 16.8935C0.122044 16.8721 0.0780773 16.836 0.0471764 16.7897C0.0162754 16.7433 -0.000165939 16.6888 -6.67572e-05 16.6331V12.5309C-6.67572e-05 12.4563 0.0295677 12.3848 0.0823193 12.332C0.135069 12.2793 0.206614 12.2496 0.281216 12.2496H4.38342C4.43913 12.2495 4.49361 12.266 4.53996 12.2969C4.58631 12.3278 4.62244 12.3718 4.64377 12.4232C4.6651 12.4747 4.67067 12.5313 4.65978 12.5859C4.64888 12.6406 4.62201 12.6907 4.58257 12.7301L3.05465 14.258C3.91872 15.4644 5.12928 16.3794 6.52562 16.8817C7.92196 17.3839 9.43803 17.4495 10.8726 17.0699C12.3071 16.6902 13.5922 15.8832 14.5573 14.756C15.5224 13.6288 16.1218 12.2347 16.276 10.7589C16.2871 10.6485 16.3198 10.5414 16.3724 10.4437C16.4249 10.346 16.4961 10.2597 16.582 10.1895Z" fill="black"/>
<path d="M7.80805 11.1917C7.96255 11.3576 8.14888 11.4906 8.3559 11.5828C8.56292 11.675 8.7864 11.7246 9.01301 11.7286C9.23961 11.7326 9.4647 11.6909 9.67485 11.6061C9.885 11.5212 10.0759 11.3948 10.2362 11.2346C10.3964 11.0743 10.5228 10.8834 10.6076 10.6733C10.6925 10.4631 10.7342 10.238 10.7302 10.0114C10.7262 9.78483 10.6766 9.56135 10.5844 9.35432C10.4921 9.1473 10.3591 8.96098 10.1933 8.80647C9.87339 8.50836 9.45023 8.34606 9.01301 8.35378C8.57578 8.36149 8.15862 8.53861 7.8494 8.84783C7.54019 9.15704 7.36307 9.57421 7.35535 10.0114C7.34764 10.4487 7.50993 10.8718 7.80805 11.1917Z" fill="black"/>
</svg>
