<svg width="23" height="17" viewBox="0 0 23 17" fill="none" xmlns="http://www.w3.org/2000/svg">
<path d="M5.25095 15.7502C5.25095 15.9491 5.17193 16.1398 5.03128 16.2805C4.89063 16.4211 4.69986 16.5002 4.50095 16.5002C4.30204 16.5002 4.11127 16.4211 3.97062 16.2805C3.82997 16.1398 3.75095 15.9491 3.75095 15.7502V2.56066L2.03195 4.28116C1.96222 4.3509 1.87943 4.40621 1.78832 4.44395C1.69721 4.48169 1.59956 4.50111 1.50095 4.50111C1.40233 4.50111 1.30468 4.48169 1.21357 4.44395C1.12246 4.40621 1.03968 4.3509 0.969947 4.28116C0.900215 4.21143 0.844901 4.12865 0.807162 4.03754C0.769424 3.94643 0.75 3.84878 0.75 3.75016C0.75 3.65155 0.769424 3.5539 0.807162 3.46279C0.844901 3.37168 0.900216 3.2889 0.969947 3.21916L3.96995 0.220664L3.98045 0.210164C4.12145 0.0732187 4.31074 -0.00263382 4.5073 -0.000949087C4.70385 0.000735641 4.89181 0.0798215 5.03045 0.219164L8.03045 3.21916C8.10018 3.2888 8.15551 3.37148 8.19329 3.4625C8.23107 3.55352 8.25055 3.65109 8.25062 3.74963C8.25069 3.84818 8.23134 3.94577 8.1937 4.03685C8.15605 4.12792 8.10083 4.21068 8.0312 4.28041C7.96156 4.35015 7.87888 4.40548 7.78786 4.44326C7.69684 4.48103 7.59927 4.50051 7.50073 4.50058C7.40218 4.50065 7.30459 4.48131 7.21352 4.44366C7.12244 4.40601 7.03968 4.3508 6.96995 4.28116L5.25095 2.56066V15.7502ZM10.5009 2.25016C10.5009 2.05125 10.58 1.86049 10.7206 1.71983C10.8613 1.57918 11.052 1.50016 11.2509 1.50016H21.7509C21.9499 1.50016 22.1406 1.57918 22.2813 1.71983C22.4219 1.86049 22.5009 2.05125 22.5009 2.25016C22.5009 2.44908 22.4219 2.63984 22.2813 2.78049C22.1406 2.92115 21.9499 3.00016 21.7509 3.00016H11.2509C11.052 3.00016 10.8613 2.92115 10.7206 2.78049C10.58 2.63984 10.5009 2.44908 10.5009 2.25016ZM11.2509 6.00016C11.052 6.00016 10.8613 6.07918 10.7206 6.21983C10.58 6.36049 10.5009 6.55125 10.5009 6.75016C10.5009 6.94908 10.58 7.13984 10.7206 7.28049C10.8613 7.42115 11.052 7.50016 11.2509 7.50016H18.7509C18.9499 7.50016 19.1406 7.42115 19.2813 7.28049C19.4219 7.13984 19.5009 6.94908 19.5009 6.75016C19.5009 6.55125 19.4219 6.36049 19.2813 6.21983C19.1406 6.07918 18.9499 6.00016 18.7509 6.00016H11.2509ZM11.2509 10.5002C11.052 10.5002 10.8613 10.5792 10.7206 10.7198C10.58 10.8605 10.5009 11.0513 10.5009 11.2502C10.5009 11.4491 10.58 11.6398 10.7206 11.7805C10.8613 11.9211 11.052 12.0002 11.2509 12.0002H15.7509C15.9499 12.0002 16.1406 11.9211 16.2813 11.7805C16.4219 11.6398 16.5009 11.4491 16.5009 11.2502C16.5009 11.0513 16.4219 10.8605 16.2813 10.7198C16.1406 10.5792 15.9499 10.5002 15.7509 10.5002H11.2509ZM11.2509 15.0002C11.052 15.0002 10.8613 15.0792 10.7206 15.2198C10.58 15.3605 10.5009 15.5513 10.5009 15.7502C10.5009 15.9491 10.58 16.1398 10.7206 16.2805C10.8613 16.4211 11.052 16.5002 11.2509 16.5002H12.7509C12.9499 16.5002 13.1406 16.4211 13.2813 16.2805C13.4219 16.1398 13.5009 15.9491 13.5009 15.7502C13.5009 15.5513 13.4219 15.3605 13.2813 15.2198C13.1406 15.0792 12.9499 15.0002 12.7509 15.0002H11.2509Z" fill="black"/>
</svg>
