<svg width="24" height="24" viewBox="0 0 24 24" fill="none" xmlns="http://www.w3.org/2000/svg">
<path d="M2.66602 4H21.3327C21.6863 4 22.0254 4.14048 22.2755 4.39052C22.5255 4.64057 22.666 4.97971 22.666 5.33333V18.6667C22.666 19.0203 22.5255 19.3594 22.2755 19.6095C22.0254 19.8595 21.6863 20 21.3327 20H2.66602C2.3124 20 1.97326 19.8595 1.72321 19.6095C1.47316 19.3594 1.33268 19.0203 1.33268 18.6667V5.33333C1.33268 4.97971 1.47316 4.64057 1.72321 4.39052C1.97326 4.14048 2.3124 4 2.66602 4ZM3.69268 18.6667H20.226L15.5593 13.84L16.5193 12.9133L21.3327 17.8933V6.34667L13.046 14.5933C12.7962 14.8417 12.4583 14.9811 12.106 14.9811C11.7538 14.9811 11.4158 14.8417 11.166 14.5933L2.66602 6.14V17.8067L7.57268 12.9L8.51268 13.84L3.69268 18.6667ZM20.4593 5.33333H3.74602L12.106 13.6467L20.4593 5.33333Z" fill="black"/>
</svg>
