<svg width="24" height="24" viewBox="0 0 24 24" fill="none" xmlns="http://www.w3.org/2000/svg">
<path d="M18.134 11C18.715 16.375 21 18 21 18H3C3 18 6 15.867 6 8.4C6 6.703 6.632 5.075 7.757 3.875C8.883 2.675 10.41 2 12 2C12.337 2 12.672 2.03 13 2.09" stroke="#211E1E" stroke-width="2" stroke-linecap="round" stroke-linejoin="round"/>
<path d="M19 8C19.7956 8 20.5587 7.68393 21.1213 7.12132C21.6839 6.55871 22 5.79565 22 5C22 4.20435 21.6839 3.44129 21.1213 2.87868C20.5587 2.31607 19.7956 2 19 2C18.2044 2 17.4413 2.31607 16.8787 2.87868C16.3161 3.44129 16 4.20435 16 5C16 5.79565 16.3161 6.55871 16.8787 7.12132C17.4413 7.68393 18.2044 8 19 8Z" stroke="#211E1E" stroke-width="2" stroke-linecap="round" stroke-linejoin="round"/>
<path d="M13.7295 21C13.5539 21.3033 13.3016 21.5552 12.998 21.7302C12.6944 21.9053 12.35 21.9974 11.9995 21.9974C11.649 21.9974 11.3047 21.9053 11.0011 21.7302C10.6974 21.5552 10.4451 21.3033 10.2695 21" stroke="#211E1E" stroke-width="2" stroke-linecap="round" stroke-linejoin="round"/>
</svg>
