<svg width="22" height="23" viewBox="0 0 22 23" fill="none" xmlns="http://www.w3.org/2000/svg">
<path d="M9.99987 10.3334C10.9838 10.3347 11.946 10.0441 12.7647 9.49847C13.5835 8.95279 14.2219 8.17653 14.5994 7.26789C14.9768 6.35924 15.0763 5.35906 14.8851 4.39389C14.694 3.42872 14.2208 2.54194 13.5256 1.84574C12.8303 1.14954 11.9442 0.675209 10.9792 0.482771C10.0143 0.290333 9.01401 0.388432 8.10487 0.764655C7.19572 1.14088 6.4186 1.77832 5.87183 2.59632C5.32505 3.41433 5.0332 4.37613 5.0332 5.36005C5.0332 6.67791 5.55626 7.94188 6.4875 8.87437C7.41874 9.80686 8.68202 10.3316 9.99987 10.3334ZM9.99987 1.71338C10.7204 1.71206 11.425 1.92459 12.0247 2.32406C12.6243 2.72352 13.0918 3.29194 13.3682 3.95733C13.6445 4.62273 13.7172 5.35516 13.5769 6.06187C13.4367 6.76858 13.0899 7.41778 12.5804 7.92725C12.0709 8.43671 11.4217 8.78352 10.715 8.92376C10.0083 9.064 9.27588 8.99135 8.61049 8.71502C7.94509 8.43869 7.37667 7.97111 6.97721 7.3715C6.57775 6.77188 6.36522 6.06721 6.36654 5.34672C6.3683 4.38364 6.75166 3.46051 7.43266 2.77951C8.11366 2.09851 9.03679 1.71515 9.99987 1.71338Z" fill="black"/>
<path d="M1.99977 20.2602V16.1802C3.02902 15.1 4.2718 14.2458 5.64909 13.6719C7.02637 13.0981 8.50801 12.8171 9.99977 12.8469C12.0415 12.8194 14.0511 13.357 15.8064 14.4002L16.7064 13.3936C14.6996 12.1296 12.3714 11.47 9.99977 11.4936C8.26457 11.4494 6.54099 11.7885 4.9519 12.4868C3.36281 13.1852 1.94735 14.2255 0.806435 15.5336C0.717503 15.6481 0.668352 15.7886 0.666435 15.9336V20.2602C0.657467 20.6234 0.792732 20.9753 1.04262 21.2389C1.29251 21.5025 1.63667 21.6564 1.99977 21.6669H10.2598L8.9931 20.3336L1.99977 20.2602Z" fill="black"/>
<path d="M17.9992 20.2601V20.3335H15.8992L14.6992 21.6668H17.9992C18.3576 21.6564 18.6977 21.5062 18.9469 21.2483C19.196 20.9904 19.3344 20.6454 19.3326 20.2868V16.4668L17.9992 17.9535V20.2601Z" fill="black"/>
<path d="M21.1727 11.4133C21.0409 11.296 20.8679 11.2357 20.6917 11.2457C20.5155 11.2557 20.3504 11.3352 20.2327 11.4667L12.486 20.1333L9.01937 16.4067C8.96247 16.3401 8.89301 16.2854 8.81498 16.2458C8.73694 16.2061 8.65185 16.1821 8.56456 16.1753C8.47727 16.1685 8.3895 16.1789 8.30625 16.2061C8.223 16.2332 8.14591 16.2764 8.07937 16.3333C8.0142 16.3926 7.96142 16.4643 7.9241 16.5441C7.88677 16.6239 7.86564 16.7103 7.86192 16.7983C7.8582 16.8864 7.87197 16.9743 7.90243 17.0569C7.93289 17.1396 7.97943 17.2154 8.03937 17.28L12.4994 22.08L21.226 12.3333C21.3373 12.2026 21.3939 12.034 21.3839 11.8626C21.374 11.6913 21.2983 11.5303 21.1727 11.4133Z" fill="black"/>
</svg>
