<svg width="20" height="22" viewBox="0 0 20 22" fill="none" xmlns="http://www.w3.org/2000/svg">
<path d="M8.628 10.013L8.014 10.627L14.054 16.667H14.667V16.053L8.627 10.013H8.628ZM6.229 6.00004C6.40395 6.00064 6.57167 6.06995 6.696 6.19304L7.916 7.41304L5.416 9.91304L4.196 8.69304C4.1342 8.63137 4.08517 8.55811 4.05171 8.47746C4.01826 8.39681 4.00104 8.31036 4.00104 8.22304C4.00104 8.13573 4.01826 8.04928 4.05171 7.96863C4.08517 7.88798 4.1342 7.81472 4.196 7.75304L5.756 6.19304C5.81777 6.13095 5.89137 6.08188 5.97245 6.04873C6.05352 6.01558 6.14042 5.99902 6.228 6.00004H6.229ZM8.629 8.12704L16 15.5V18H13.5L6.128 10.627L8.629 8.12704Z" fill="black"/>
<path d="M3 0H5V2H15V0H17V2H18C18.5304 2 19.0391 2.21071 19.4142 2.58579C19.7893 2.96086 20 3.46957 20 4V20C20 20.5304 19.7893 21.0391 19.4142 21.4142C19.0391 21.7893 18.5304 22 18 22H2C1.46957 22 0.960859 21.7893 0.585787 21.4142C0.210714 21.0391 0 20.5304 0 20V4C0 3.46957 0.210714 2.96086 0.585787 2.58579C0.960859 2.21071 1.46957 2 2 2H3V0ZM18 20V4H2V20H18Z" fill="black"/>
</svg>
