<svg width="18" height="20" viewBox="0 0 18 20" fill="none" xmlns="http://www.w3.org/2000/svg">
<path d="M10.0305 0.893412C9.752 0.630108 9.38327 0.483398 9 0.483398C8.61673 0.483398 8.248 0.630108 7.9695 0.893412L0.703501 7.76041C0.481023 7.97094 0.303873 8.22468 0.182905 8.50608C0.0619366 8.78748 -0.000302358 9.09061 1.10438e-06 9.39691V17.7519C0.000398756 18.3484 0.237627 18.9203 0.659541 19.3419C1.08145 19.7636 1.65352 20.0004 2.25 20.0004H4.5C5.09674 20.0004 5.66903 19.7634 6.09099 19.3414C6.51295 18.9194 6.75 18.3471 6.75 17.7504V14.0004C6.75 13.8015 6.82902 13.6107 6.96967 13.4701C7.11032 13.3294 7.30109 13.2504 7.5 13.2504H10.5C10.6989 13.2504 10.8897 13.3294 11.0303 13.4701C11.171 13.6107 11.25 13.8015 11.25 14.0004V17.7504C11.25 18.3471 11.4871 18.9194 11.909 19.3414C12.331 19.7634 12.9033 20.0004 13.5 20.0004H15.75C16.3467 20.0004 16.919 19.7634 17.341 19.3414C17.7629 18.9194 18 18.3471 18 17.7504V9.39541C17.9999 9.08926 17.9373 8.78634 17.8161 8.50521C17.6949 8.22407 17.5176 7.97064 17.295 7.76041L10.0305 0.890412V0.893412Z"/>
</svg>
