<svg width="32" height="27" viewBox="0 0 32 27" fill="none" xmlns="http://www.w3.org/2000/svg">
<g clip-path="url(#clip0_319_2279)">
<path d="M26.88 3.99977H20V1.56977C19.9407 0.566778 19.4865 -0.371894 18.7369 -1.04092C17.9873 -1.70995 17.0033 -2.05487 16 -2.00023C14.9967 -2.05487 14.0127 -1.70995 13.2631 -1.04092C12.5135 -0.371894 12.0593 0.566778 12 1.56977V3.99977H5.12C4.29252 3.99977 3.49894 4.32848 2.91383 4.91359C2.32871 5.49871 2 6.29229 2 7.11977V20.8798C2 21.7072 2.32871 22.5008 2.91383 23.0859C3.49894 23.6711 4.29252 23.9998 5.12 23.9998H26.88C27.7075 23.9998 28.5011 23.6711 29.0862 23.0859C29.6713 22.5008 30 21.7072 30 20.8798V7.11977C30 6.29229 29.6713 5.49871 29.0862 4.91359C28.5011 4.32848 27.7075 3.99977 26.88 3.99977ZM14 1.56977C14.0649 1.0999 14.3097 0.67359 14.6828 0.380705C15.0559 0.0878193 15.5282 -0.0487565 16 -0.000231981C16.4718 -0.0487565 16.9441 0.0878193 17.3172 0.380705C17.6903 0.67359 17.9351 1.0999 18 1.56977V3.99977H14V1.56977ZM28 20.8798C28 21.0268 27.971 21.1725 27.9147 21.3084C27.8585 21.4443 27.776 21.5677 27.672 21.6717C27.568 21.7757 27.4445 21.8582 27.3086 21.9145C27.1727 21.9708 27.0271 21.9998 26.88 21.9998H5.12C4.82296 21.9998 4.53808 21.8818 4.32804 21.6717C4.118 21.4617 4 21.1768 4 20.8798V7.11977C4 6.82273 4.118 6.53785 4.32804 6.32781C4.53808 6.11777 4.82296 5.99977 5.12 5.99977H26.88C27.0271 5.99977 27.1727 6.02874 27.3086 6.08502C27.4445 6.14131 27.568 6.22381 27.672 6.32781C27.776 6.43181 27.8585 6.55528 27.9147 6.69116C27.971 6.82705 28 6.97269 28 7.11977V20.8798Z" fill="black"/>
<path d="M25 9H18C17.7348 9 17.4804 9.10536 17.2929 9.29289C17.1054 9.48043 17 9.73478 17 10C17 10.2652 17.1054 10.5196 17.2929 10.7071C17.4804 10.8946 17.7348 11 18 11H25C25.2652 11 25.5196 10.8946 25.7071 10.7071C25.8946 10.5196 26 10.2652 26 10C26 9.73478 25.8946 9.48043 25.7071 9.29289C25.5196 9.10536 25.2652 9 25 9ZM25 13H18C17.7348 13 17.4804 13.1054 17.2929 13.2929C17.1054 13.4804 17 13.7348 17 14C17 14.2652 17.1054 14.5196 17.2929 14.7071C17.4804 14.8946 17.7348 15 18 15H25C25.2652 15 25.5196 14.8946 25.7071 14.7071C25.8946 14.5196 26 14.2652 26 14C26 13.7348 25.8946 13.4804 25.7071 13.2929C25.5196 13.1054 25.2652 13 25 13ZM25 17H18C17.7348 17 17.4804 17.1054 17.2929 17.2929C17.1054 17.4804 17 17.7348 17 18C17 18.2652 17.1054 18.5196 17.2929 18.7071C17.4804 18.8946 17.7348 19 18 19H25C25.2652 19 25.5196 18.8946 25.7071 18.7071C25.8946 18.5196 26 18.2652 26 18C26 17.7348 25.8946 17.4804 25.7071 17.2929C25.5196 17.1054 25.2652 17 25 17ZM13.09 14.83C13.6733 14.194 13.9978 13.363 14 12.5C14 11.5717 13.6313 10.6815 12.9749 10.0251C12.3185 9.36875 11.4283 9 10.5 9C9.57174 9 8.6815 9.36875 8.02513 10.0251C7.36875 10.6815 7 11.5717 7 12.5C7.00215 13.363 7.32671 14.194 7.91 14.83C7.32129 15.2443 6.84058 15.7939 6.50823 16.4325C6.17588 17.0711 6.00159 17.7801 6 18.5C6 18.7652 6.10536 19.0196 6.29289 19.2071C6.48043 19.3946 6.73478 19.5 7 19.5C7.26522 19.5 7.51957 19.3946 7.70711 19.2071C7.89464 19.0196 8 18.7652 8 18.5C8 17.837 8.26339 17.2011 8.73223 16.7322C9.20107 16.2634 9.83696 16 10.5 16C11.163 16 11.7989 16.2634 12.2678 16.7322C12.7366 17.2011 13 17.837 13 18.5C13 18.7652 13.1054 19.0196 13.2929 19.2071C13.4804 19.3946 13.7348 19.5 14 19.5C14.2652 19.5 14.5196 19.3946 14.7071 19.2071C14.8946 19.0196 15 18.7652 15 18.5C14.9984 17.7801 14.8241 17.0711 14.4918 16.4325C14.1594 15.7939 13.6787 15.2443 13.09 14.83ZM9 12.5C9 12.2033 9.08797 11.9133 9.2528 11.6666C9.41762 11.42 9.65189 11.2277 9.92597 11.1142C10.2001 11.0007 10.5017 10.9709 10.7926 11.0288C11.0836 11.0867 11.3509 11.2296 11.5607 11.4393C11.7704 11.6491 11.9133 11.9164 11.9712 12.2074C12.0291 12.4983 11.9994 12.7999 11.8858 13.074C11.7723 13.3481 11.58 13.5824 11.3334 13.7472C11.0867 13.912 10.7967 14 10.5 14C10.1022 14 9.72064 13.842 9.43934 13.5607C9.15804 13.2794 9 12.8978 9 12.5Z" fill="black"/>
<rect x="11" y="-2" width="9" height="6" fill="white"/>
</g>
<defs>
<clipPath id="clip0_319_2279">
<rect width="32" height="27" fill="white"/>
</clipPath>
</defs>
</svg>
