<svg width="17" height="17" viewBox="0 0 17 17" fill="none" xmlns="http://www.w3.org/2000/svg">
<rect x="3" y="2" width="7" height="2" fill="black"/>
<rect x="3" y="8" width="10" height="2" fill="black"/>
<rect x="3" y="14" width="12" height="2" fill="black"/>
<path d="M12 2.99992L10 4L10 2L12 2.99992Z" fill="black"/>
<path d="M15 8.99992L13 10L13 8L15 8.99992Z" fill="black"/>
<path d="M17 14.9999L15 16L15 14L17 14.9999Z" fill="black"/>
<circle cx="2" cy="3" r="2" fill="black"/>
<circle cx="2" cy="9" r="2" fill="black"/>
<circle cx="2" cy="15" r="2" fill="black"/>
<path d="M1.039 2.203V1.882H1.717V4H1.357V2.203H1.039Z" fill="white"/>
<path d="M1.12 9.733C1.444 9.511 1.703 9.294 1.897 9.082C2.093 8.868 2.191 8.67 2.191 8.488C2.191 8.38 2.164 8.294 2.11 8.23C2.058 8.166 1.973 8.134 1.855 8.134C1.733 8.134 1.641 8.174 1.579 8.254C1.517 8.332 1.482 8.444 1.474 8.59H1.141C1.155 8.348 1.229 8.163 1.363 8.035C1.499 7.907 1.672 7.843 1.882 7.843C2.088 7.843 2.249 7.898 2.365 8.008C2.483 8.116 2.542 8.266 2.542 8.458C2.542 8.612 2.494 8.768 2.398 8.926C2.304 9.084 2.184 9.23 2.038 9.364C1.892 9.496 1.741 9.61 1.585 9.706H2.59V9.985H1.12V9.733Z" fill="white"/>
<path d="M1.9 13.816C2.04 13.816 2.16 13.841 2.26 13.891C2.36 13.939 2.435 14.006 2.485 14.092C2.537 14.178 2.563 14.274 2.563 14.38C2.563 14.514 2.525 14.626 2.449 14.716C2.375 14.804 2.27 14.857 2.134 14.875V14.89C2.28 14.932 2.394 14.995 2.476 15.079C2.56 15.161 2.602 15.275 2.602 15.421C2.602 15.599 2.543 15.744 2.425 15.856C2.307 15.966 2.138 16.021 1.918 16.021C1.692 16.021 1.51 15.964 1.372 15.85C1.234 15.734 1.155 15.563 1.135 15.337H1.474C1.486 15.457 1.529 15.553 1.603 15.625C1.677 15.695 1.777 15.73 1.903 15.73C2.021 15.73 2.111 15.699 2.173 15.637C2.237 15.575 2.269 15.495 2.269 15.397C2.269 15.279 2.223 15.189 2.131 15.127C2.041 15.065 1.91 15.034 1.738 15.034H1.657V14.752H1.738C2.064 14.756 2.227 14.645 2.227 14.419C2.227 14.321 2.197 14.244 2.137 14.188C2.077 14.132 1.995 14.104 1.891 14.104C1.787 14.104 1.7 14.136 1.63 14.2C1.56 14.262 1.518 14.353 1.504 14.473H1.168C1.182 14.265 1.252 14.104 1.378 13.99C1.504 13.874 1.678 13.816 1.9 13.816Z" fill="white"/>
</svg>
