<svg width="26" height="26" viewBox="0 0 26 26" fill="none" xmlns="http://www.w3.org/2000/svg">
<path fill-rule="evenodd" clip-rule="evenodd" d="M23.1562 26C23.9105 26 24.6338 25.7004 25.1671 25.1671C25.7004 24.6338 26 23.9105 26 23.1563L26 2.84375C26 1.274 24.726 1.79597e-06 23.1563 1.65874e-06L2.84375 -1.17035e-07C2.08954 -1.8297e-07 1.36622 0.299608 0.832915 0.832914C0.299608 1.36622 1.8297e-07 2.08954 1.17035e-07 2.84375L-1.65874e-06 23.1562C-1.72468e-06 23.9105 0.299606 24.6338 0.832913 25.1671C1.36622 25.7004 2.08954 26 2.84375 26L23.1562 26ZM23.5625 23.1563C23.5625 23.264 23.5197 23.3673 23.4435 23.4435C23.3673 23.5197 23.264 23.5625 23.1562 23.5625L2.84375 23.5625C2.736 23.5625 2.63267 23.5197 2.55649 23.4435C2.4803 23.3673 2.4375 23.264 2.4375 23.1562L2.4375 2.84375C2.4375 2.73601 2.4803 2.63267 2.55649 2.55649C2.63268 2.4803 2.73601 2.4375 2.84375 2.4375L23.1563 2.4375C23.264 2.4375 23.3673 2.4803 23.4435 2.55649C23.5197 2.63267 23.5625 2.73601 23.5625 2.84375L23.5625 23.1563ZM6.90625 21.125C7.22948 21.125 7.53947 20.9966 7.76803 20.768C7.99659 20.5395 8.125 20.2295 8.125 19.9062L8.125 7.71875C8.125 7.39552 7.9966 7.08552 7.76804 6.85696C7.53948 6.6284 7.22948 6.5 6.90625 6.5C6.58302 6.5 6.27303 6.6284 6.04446 6.85696C5.8159 7.08552 5.6875 7.39552 5.6875 7.71875L5.6875 19.9062C5.6875 20.2295 5.8159 20.5395 6.04446 20.768C6.27302 20.9966 6.58302 21.125 6.90625 21.125ZM20.3125 19.9062C20.3125 20.2295 20.1841 20.5395 19.9555 20.768C19.727 20.9966 19.417 21.125 19.0937 21.125C18.7705 21.125 18.4605 20.9966 18.232 20.768C18.0034 20.5395 17.875 20.2295 17.875 19.9062L17.875 10.9688C17.875 10.6455 18.0034 10.3355 18.232 10.107C18.4605 9.8784 18.7705 9.75 19.0938 9.75C19.417 9.75 19.727 9.8784 19.9555 10.107C20.1841 10.3355 20.3125 10.6455 20.3125 10.9688L20.3125 19.9062ZM13 21.125C13.3232 21.125 13.6332 20.9966 13.8618 20.768C14.0903 20.5395 14.2187 20.2295 14.2187 19.9062L14.2188 14.2187C14.2188 13.8955 14.0903 13.5855 13.8618 13.357C13.6332 13.1284 13.3232 13 13 13C12.6768 13 12.3668 13.1284 12.1382 13.357C11.9097 13.5855 11.7813 13.8955 11.7813 14.2187L11.7812 19.9062C11.7812 20.2295 11.9097 20.5395 12.1382 20.768C12.3668 20.9966 12.6768 21.125 13 21.125Z" fill="#4069D3"/>
</svg>
