<svg width="24" height="24" viewBox="0 0 24 24" fill="none" xmlns="http://www.w3.org/2000/svg">
<g opacity="0.6" clip-path="url(#clip0_295_1269)">
<path d="M15 10.5C12.7951 10.5 11 8.70486 11 6.5C11 4.29514 12.7951 2.5 15 2.5C17.2049 2.5 19 4.29514 19 6.5C19 8.70486 17.2049 10.5 15 10.5ZM23.5 20V20.5H23H6.5V20C6.5 16.4171 9.41619 13.5 13 13.5H17C20.5829 13.5 23.5 16.4171 23.5 20Z" fill="#4069D3" stroke="#4069D3"/>
<path d="M18 21.5H18.5V21V20C18.5 15.8649 15.1351 12.5 11 12.5H7C2.86381 12.5 -0.5 15.8649 -0.5 20V21V21.5H0H17H18ZM4 6.5C4 9.25714 6.24286 11.5 9 11.5C11.7571 11.5 14 9.25714 14 6.5C14 3.74286 11.7571 1.5 9 1.5C6.24286 1.5 4 3.74286 4 6.5Z" fill="#4069D3" stroke="white"/>
</g>
<defs>
<clipPath id="clip0_295_1269">
<rect width="24" height="24" fill="white"/>
</clipPath>
</defs>
</svg>
